<?xml version="1.0" encoding="UTF-8"?>
<!DOCTYPE svg PUBLIC "-//W3C//DTD SVG 1.1//EN" "http://www.w3.org/Graphics/SVG/1.1/DTD/svg11.dtd">
<svg version="1.1" xmlns="http://www.w3.org/2000/svg" xmlns:xlink="http://www.w3.org/1999/xlink" x="0" y="0" width="30" height="30" viewBox="0, 0, 30, 30">
  <g id="Layer_1">
    <g>
      <path d="M16.75,2.45 C16.75,3.65 15.75,4.65 14.55,4.65 C13.35,4.65 12.35,3.65 12.35,2.45 C12.35,1.25 13.35,0.25 14.55,0.25 C15.75,0.25 16.75,1.25 16.75,2.45 z M14.55,6.45 C13.25,6.45 12.25,7.45 12.25,8.75 C12.25,10.05 13.25,11.05 14.55,11.05 C15.85,11.05 16.85,10.05 16.85,8.75 C16.85,7.45 15.85,6.45 14.55,6.45 z M14.55,12.65 C13.25,12.65 12.15,13.75 12.15,15.05 C12.15,16.35 13.25,17.45 14.55,17.45 C15.85,17.45 16.95,16.35 16.95,15.05 C16.95,13.75 15.85,12.65 14.55,12.65 z M14.55,18.95 C13.25,18.95 12.25,19.95 12.25,21.25 C12.25,22.55 13.25,23.55 14.55,23.55 C15.85,23.55 16.85,22.55 16.85,21.25 C16.85,20.05 15.85,18.95 14.55,18.95 z M14.55,25.35 C13.35,25.35 12.35,26.35 12.35,27.55 C12.35,28.75 13.35,29.75 14.55,29.75 C15.75,29.75 16.75,28.75 16.75,27.55 C16.75,26.35 15.75,25.35 14.55,25.35 z M20.65,6.15 C19.25,6.15 18.05,7.35 18.05,8.75 C18.05,10.15 19.25,11.35 20.65,11.35 C22.05,11.35 23.25,10.15 23.25,8.75 C23.25,7.35 22.05,6.15 20.65,6.15 z M20.65,12.35 C19.15,12.35 17.95,13.55 17.95,15.05 C17.95,16.55 19.15,17.75 20.65,17.75 C22.15,17.75 23.35,16.55 23.35,15.05 C23.35,13.55 22.15,12.35 20.65,12.35 z M20.65,18.65 C19.25,18.65 18.05,19.85 18.05,21.25 C18.05,22.65 19.25,23.85 20.65,23.85 C22.05,23.85 23.25,22.65 23.25,21.25 C23.25,19.85 22.05,18.65 20.65,18.65 z M26.95,12.05 C25.35,12.05 23.95,13.35 23.95,15.05 C23.95,16.65 25.25,18.05 26.95,18.05 C28.65,18.05 29.95,16.75 29.95,15.05 C29.85,13.35 28.55,12.05 26.95,12.05 z M8.35,6.75 C7.25,6.75 6.35,7.65 6.35,8.75 C6.35,9.85 7.25,10.75 8.35,10.75 C9.45,10.75 10.35,9.85 10.35,8.75 C10.35,7.65 9.45,6.75 8.35,6.75 z M8.35,12.95 C7.15,12.95 6.25,13.85 6.25,15.05 C6.25,16.25 7.15,17.15 8.35,17.15 C9.55,17.15 10.45,16.25 10.45,15.05 C10.45,13.85 9.55,12.95 8.35,12.95 z M8.35,19.25 C7.25,19.25 6.35,20.15 6.35,21.25 C6.35,22.35 7.25,23.25 8.35,23.25 C9.45,23.25 10.35,22.35 10.35,21.25 C10.35,20.15 9.45,19.25 8.35,19.25 z M2.15,13.25 C1.15,13.25 0.35,14.05 0.35,15.05 C0.35,16.05 1.15,16.85 2.15,16.85 C3.15,16.85 3.95,16.05 3.95,15.05 C3.95,14.05 3.15,13.25 2.15,13.25 z" fill="#00B0B9"/>
    </g>
  </g>
</svg>
